<svg height='100px' width='100px'  fill="#000000" xmlns="http://www.w3.org/2000/svg" viewBox="0 0 30 28" x="0px" y="0px"><path fill="#000000" fill-rule="evenodd" d="M4 17h2v-2H4v2zm6-6h2V9h-2v2zm13 3h2v-2h-2v2zM6 12h2v-2H6v2zm13-1h2V9h-2v2zM8.399 6.199l1.202 1.6A8.92 8.92 0 0 1 15 6c1.252 0 2.463.252 3.6.748l.801-1.832A10.923 10.923 0 0 0 15 4c-2.402 0-4.684.761-6.601 2.199zM16 20h2v-2h-2v2zm10 5c0-.552-.449-1-1-1H5c-.551 0-1 .448-1 1v1h22v-1zm-16-3h2v-4h2v4h6v-5.465l-5-3.333-5 3.333V22zm18 3v3H2v-3c0-1.654 1.346-3 3-3h3v-6.535l7-4.667 7 4.667V22h3c1.654 0 3 1.346 3 3zm2-10a14.87 14.87 0 0 1-1.444 6.429l-1.806-.858A12.894 12.894 0 0 0 28 15c0-7.168-5.832-13-13-13S2 7.832 2 15c0 1.95.421 3.824 1.25 5.571l-1.806.858A14.87 14.87 0 0 1 0 15C0 6.729 6.729 0 15 0s15 6.729 15 15z"></path></svg>