<svg height='100px' width='100px' xmlns="http://www.w3.org/2000/svg" version="1.1" x="0px" y="0px" viewBox="0 0 100 100"><style type="text/css">
	.st3{fill:none;stroke:#000000;stroke-width:2;stroke-miterlimit:10;}
	.st4{fill:none;stroke:#000000;stroke-width:2;stroke-linecap:round;stroke-miterlimit:10;}
</style><g><path class="st3" d="M59.6,32.9C59.6,32.8,59.6,32.8,59.6,32.9l0-14.5c0-5.2-8.2-9.4-10.2-10.4c-0.3-0.1-0.6-0.1-0.9,0   c-2,1-10.2,5.3-10.2,10.4v14.5c-0.1,0-0.1,0-0.1,0c-0.3,1-6.6,62.5-6.6,62.5s33.7,0.5,34.7-0.1C66.2,95.3,59.6,33.4,59.6,32.9z"></path><line class="st4" x1="36" y1="19.1" x2="61.8" y2="19.1"></line><line class="st4" x1="35.6" y1="32.3" x2="61.4" y2="32.3"></line><line class="st4" x1="36.1" y1="51.7" x2="61.4" y2="51.7"></line><line class="st4" x1="34.8" y1="68.6" x2="62.9" y2="68.6"></line><line class="st4" x1="27" y1="95.5" x2="70.7" y2="95.5"></line><path class="st3" d="M52,86.3c-0.2-1.5-1.6-2.6-3.3-2.6s-3,1.1-3.3,2.6l0,9.2H52L52,86.3z"></path><circle class="st3" cx="48.9" cy="42.5" r="3.2"></circle><line class="st4" x1="66.2" y1="21.6" x2="91.2" y2="15.1"></line><line class="st4" x1="66.2" y1="25.4" x2="92.1" y2="25.4"></line><line class="st4" x1="66.2" y1="29.1" x2="91.2" y2="35.6"></line><line class="st4" x1="31.5" y1="21.6" x2="6.5" y2="15.1"></line><line class="st4" x1="31.5" y1="25.4" x2="5.7" y2="25.4"></line><line class="st4" x1="31.5" y1="29.1" x2="6.5" y2="35.6"></line></g></svg>
