<svg height='100px' width='100px' xmlns="http://www.w3.org/2000/svg" version="1.1" x="0px" y="0px" viewBox="0 0 95 95"><path d="M93.1,0.3H1.9C1.2,0.6,0.8,1,0.5,1.7v91.2c0.3,0.8,0.8,1.3,1.6,1.5H93c0.8-0.2,1.3-0.7,1.6-1.6V1.9  C94.4,1.1,93.8,0.6,93.1,0.3z M90.6,90.5H4.4V4.3h86.2V90.5z M53.7,43.1c0.8-0.9,1.6-1.8,2.4-2.7c1-1.1,2-2.3,3-3.4  c0.8-1,1.7-1.9,2.5-2.8c1.4-1.7,2.9-3.3,4.3-5c0.9-1,1.8-2.1,2.7-3.1c1.3-1.5,2.5-2.9,3.8-4.3c0.6-0.7,0.8-1.5,0.4-2.3  c-0.3-0.7-1-1.1-1.8-1.1c-0.3,0.1-0.6,0.1-0.5,0.6c-0.6,0.6-1.2,1.1-1.7,1.7c-1.1,1.2-2.1,2.4-3.2,3.6c-0.6,0.6-1.2,1.2-1.7,1.8  c-1.1,1.2-2.1,2.4-3.2,3.6c-0.6,0.6-1.2,1.2-1.7,1.8c-1.1,1.2-2.1,2.4-3.2,3.6c-0.5,0.6-1.1,1.2-1.6,1.8c-1,1.1-2,2.3-3,3.4  c-0.8,1-1.7,1.9-2.5,2.8c-1.1,1.2-2.2,2.5-3.3,3.7c-0.5,0.5-1,1-1.5,1.6c-1.1,1.2-2.1,2.4-3.2,3.6c-0.6,0.6-1.2,1.2-1.7,1.8  c-1,1.1-2.1,2.3-3.1,3.5c-0.7,0.9-1.5,1.7-2.3,2.6c-1.1,1.2-2.2,2.5-3.3,3.7c-0.7,0.9-1.5,1.7-2.2,2.5C27,67.3,26,68.4,25,69.6  c-0.8,0.9-1.6,1.8-2.4,2.7c-1.3,1.5-2.6,3.1-4,4.6c-0.6,0.6-1.1,1.3-0.8,2.2c0.3,0.8,0.8,1.2,1.6,1.4c0.7,0.2,1.3-0.1,1.8-0.6  c0.6-0.7,1.2-1.4,1.8-2.1c0.5-0.6,1.1-1.2,1.6-1.8c1.1-1.2,2.1-2.4,3.2-3.6c0.6-0.6,1.2-1.2,1.7-1.8c1-1.1,2-2.3,3-3.4  c0.8-0.9,1.6-1.8,2.4-2.7c1.1-1.2,2.2-2.5,3.3-3.7c0.7-0.9,1.5-1.7,2.2-2.5c1-1.1,2-2.3,3-3.4c0.8-1,1.7-1.9,2.5-2.8  c1.1-1.3,2.2-2.5,3.3-3.8c0.5-0.6,1-1.1,1.5-1.7C51.7,45.4,52.7,44.3,53.7,43.1z M20.7,50.2c0.7,0.3,1.7,0.1,2.1-0.4  c1.2-1.4,2.5-2.7,3.8-4.1c0.8-0.9,1.7-1.9,2.6-2.8c1.3-1.4,2.6-2.8,3.9-4.2c0.9-1,1.7-1.9,2.6-2.8c1.3-1.4,2.6-2.8,3.9-4.2  c0.9-1,5.2-5.6,6.5-7c1.2-1.2,2.3-2.5,3.5-3.7c0.6-0.6,0.9-1.2,0.7-2.1c-0.2-0.6-0.6-1.1-1.3-1.3c-0.7-0.2-1.4-0.1-1.9,0.4l-27,29  c-0.4,0.5-0.7,1-0.7,1.8C19.4,49.4,19.8,50,20.7,50.2z M76.8,49.3v-0.5c-0.5-1.6-2.3-1.8-3.3-0.8C65.7,55.7,58,63.5,50.2,71.2  c-0.1,0.1-0.1,0.1-0.2,0.2c-0.6,0.8-0.6,2.1,0.4,2.8c0.9,0.6,1.9,0.5,2.7-0.3c7.7-7.7,15.4-15.4,23.1-23.1  C76.6,50.4,76.9,49.9,76.8,49.3z"></path></svg>
