<svg xmlns="http://www.w3.org/2000/svg" width="100" height="100" viewBox="0 0 100 100"><g transform="translate(50 50) scale(-0.8 0.8) rotate(0) translate(-50 -50)" style="fill:#000000"><svg fill="#000000" xmlns="http://www.w3.org/2000/svg" xmlns:xlink="http://www.w3.org/1999/xlink" version="1.1" x="0px" y="0px" viewBox="0 0 512 512" enable-background="new 0 0 512 512" xml:space="preserve"><g><path d="M492.1,392.3L215.5,135.6l74.7-74.7l-37-37h-87.4l-35.7,35.7L107,25L46.8,85.2l34.6,23.1L2,187.7l80.7,80.7l74.7-74.7   l256.7,276.7c14,17.6,52.7,28.4,79.5,1.5C510.6,455,520.5,419.2,492.1,392.3z M72.4,82.7l32-32l13.8,20.7L93.2,96.5L72.4,82.7z    M25.1,187.7L172.5,40.2h73.9l20.7,20.7L82.7,245.3L25.1,187.7z M482.1,460.3c-19.6,19.6-45.9,10.2-56.1-1.1L168.9,182.1l35-35   L481,404.3C502.8,425.8,491.6,450.8,482.1,460.3z"></path><rect x="344.5" y="322.8" transform="matrix(-0.7072 -0.707 0.707 -0.7072 368.1813 814.2763)" width="16.3" height="16.3"></rect><rect x="321.5" y="299.7" transform="matrix(0.7071 -0.7071 0.7071 0.7071 -121.1361 323.2581)" width="16.3" height="16.3"></rect><rect x="298.4" y="276.6" transform="matrix(-0.7071 -0.7071 0.7071 -0.7071 321.9893 702.9698)" width="16.3" height="16.3"></rect></g></svg></g></svg>
