<svg height='100px' width='100px' xmlns="http://www.w3.org/2000/svg" version="1.1" x="0px" y="0px" viewBox="0 0 50 50" enable-background="new 0 0 50 50"><g transform="scale(0.9) translate(2.5 2.5)"><path d="M42.7,14c0.3-0.3,0.5-0.7,0.5-1.1c0-0.4-0.2-0.8-0.5-1.1l-4.5-4.5c-0.6-0.6-1.7-0.6-2.3,0l-0.2,0.2   c-6.3-4.3-13.5-6.8-21-7.3c-0.7-0.1-1.3,0.4-1.4,1.1c-0.1,0.7,0.3,1.4,1,1.6c6.3,1.8,11.9,5.2,16.3,9.8l-0.6,0.6   c-0.3,0.3-0.5,0.7-0.5,1.1c0,0.3,0.1,0.6,0.2,0.8L1.3,43.7c-1.4,1.4-1.4,3.6,0,5c1.4,1.4,3.6,1.4,5,0l28.4-28.4   c0.2,0.2,0.5,0.2,0.8,0.2c0.4,0,0.8-0.2,1.1-0.5l0.6-0.6c4.6,4.4,8,10,9.8,16.3c0.2,0.7,0.9,1.1,1.6,1c0.7-0.1,1.2-0.7,1.1-1.4   c-0.5-7.5-3-14.7-7.3-21L42.7,14z M16,1.9c6.6,0.7,13,3,18.7,6.8l-3,3C27.4,7.2,22,3.8,16,1.9z M5.2,47.7c-0.8,0.8-2.1,0.8-2.9,0   c-0.8-0.8-0.8-2.1,0-2.9l28.4-28.4l2.9,2.9L5.2,47.7z M35.5,19L31,14.5v-0.1l6-6c0,0,0,0,0,0c0,0,0.1,0,0.1,0l4.5,4.5l0,0.1   C41.5,13.1,35.5,19.1,35.5,19C35.6,19,35.5,19,35.5,19z M48.1,34c-1.9-6-5.3-11.4-9.8-15.7l3-3C45.1,21,47.5,27.4,48.1,34z"></path></g></svg>
