<svg xmlns="http://www.w3.org/2000/svg" width="100" height="100" viewBox="0 0 100 100"><g transform="translate(100 0) scale(-1 1)"><svg xmlns="http://www.w3.org/2000/svg" viewBox="0 0 100 100" x="0px" y="0px"><path d="M97.08,46.46c-2.78.1-4.84-.57-6.12-1.95a5.44,5.44,0,0,1-.83-1.17c2.27-1,4.25-2.69,4.47-5.47.28-3.55-1.41-5-2.94-5.1-1.85-.16-4.08,1.53-4.36,4.56a14.61,14.61,0,0,0,.27,4.81,21.32,21.32,0,0,1-3.74.67,29.56,29.56,0,0,0-3.31-10.64C76.53,25,69.6,20.68,60.46,19.73c-23.22-2.41-42.64,12.8-42.83,13l0,0A14,14,0,0,0,5.66,33.78C3,35.32,1.57,37.39,1.95,39a1,1,0,0,0,.86.77A7.75,7.75,0,0,1,8.5,44.12c-1.92,2.31-2.11,7-1.39,10.95.68,3.73-1.64,5.18-1.73,5.23a1,1,0,0,0-.45,1.18c.15.46,1.59,4.58,4.1,5.84a1,1,0,0,0,.37.1,18.38,18.38,0,0,0,14-4.84c4,4.62-.93,11-1.15,11.25a1,1,0,0,0,.78,1.63h7.48a1,1,0,0,0,.63-.22c3.07-2.49,5.81-8.56,7-11.88.75.16,1.5.3,2.24.41-.47,2.94-3.76,8.18-5.11,10.11a1,1,0,0,0,.82,1.57h7a1,1,0,0,0,.66-.25c4.09-3.58,6-9.09,6.54-11,4.46-.33,8.13-1.33,10-2.54a6.88,6.88,0,0,0,.62.58c-.25,3.69-4.73,9.55-6.51,11.58a1,1,0,0,0,.75,1.66h6.37a1,1,0,0,0,.53-.15c4.09-2.55,6-7.35,6.6-9.42a8.37,8.37,0,0,0,1.69.2h0A20.62,20.62,0,0,1,68.24,74a1,1,0,0,0,.89,1.45h7.11a1,1,0,0,0,.9-.56C82.36,64.29,84.67,53.78,84,44.82A22.4,22.4,0,0,0,88.24,44a7.45,7.45,0,0,0,1.26,1.85c1.61,1.72,4,2.58,7.13,2.58h.51a1,1,0,0,0,1-1A1,1,0,0,0,97.08,46.46Zm-54.43,27H37.94c1.47-2.28,3.93-6.45,4.4-9.42a43.69,43.69,0,0,0,5.75.26A22.49,22.49,0,0,1,42.65,73.46Zm18.52,0h-4c1.77-2.26,4.71-6.43,5.47-10l.75.42a23.49,23.49,0,0,0,3.24,1.43C66.1,67.14,64.5,71.25,61.17,73.46Zm14.44,0H70.68c.79-1.94,2-5.5,1.57-8.64A1,1,0,0,0,70.91,64c-.77.28-3.11-.16-5.93-1.55A16,16,0,0,1,62.57,61c-.53-.67-3.92-5.17-3.09-9.5a1,1,0,0,0-2-.38c-.63,3.3.65,6.52,1.86,8.67-2,1.65-11.17,3.71-20.92,1.55V58.26a1,1,0,0,0-2,0V62c-1.09,3.48-3.8,9.17-6.29,11.44H25c1.94-3.24,3.45-8.4-.16-12.34a15.19,15.19,0,0,0,3.11-5.53A1,1,0,1,0,26,55.11a14.74,14.74,0,0,1-3.26,5.37h0a16.31,16.31,0,0,1-12.91,5c-1.19-.72-2.19-2.7-2.7-3.94a7,7,0,0,0,2-6.8c-.77-4.21-.24-8.33,1.23-9.58a1,1,0,0,0,.31-1A9.8,9.8,0,0,0,4,38a6.49,6.49,0,0,1,2.65-2.49,11.62,11.62,0,0,1,13.86,1.37,1,1,0,1,0,1.35-1.48,14.51,14.51,0,0,0-2.27-1.7c3.68-2.66,20.75-14.05,40.65-12,8.45.88,14.85,4.84,18.51,11.45C84.22,43,83,58.06,75.62,73.46Zm13.84-32a13.13,13.13,0,0,1-.17-3.94c.17-1.82,1.33-2.75,2.12-2.75h.08c.82.07,1.26,1.23,1.12,2.95S91.11,40.7,89.46,41.47Z"></path><circle cx="14" cy="51.34" r="1.54"></circle><path d="M8.73,36.13A1,1,0,0,0,9.3,38c.05,0,5.34-1.54,7.76.87a1,1,0,0,0,1.41-1.41C15.22,34.25,9,36.05,8.73,36.13Z"></path></svg></g></svg>
