<svg height='100px' width='100px' xmlns="http://www.w3.org/2000/svg" version="1.1" viewBox="0 0 8.4666665 8.4666669" x="0px" y="0px"><g transform="rotate(180) translate(-8.4666665 -8.4666669)"><path transform="scale(0.26458333)" d="m 24.986328,2.7070312 a 0.25002501,0.25002501 0 0 0 -0.171875,0.072266 L 23.8125,3.78125 a 0.25002501,0.25002501 0 0 0 0,0.3554688 L 25.863281,6.1875 a 0.25098527,0.25098527 0 0 0 0.01953,0.017578 l 2.027344,2.0292969 a 0.25002501,0.25002501 0 0 0 0.353516,0 l 1.003906,-1.0019531 a 0.25002501,0.25002501 0 0 0 -0.0059,-0.3496094 l -1.988239,-1.986328 a 0.25002501,0.25002501 0 0 0 -0.0078,-0.00977 l -0.0078,-0.00977 a 0.25002501,0.25002501 0 0 0 -0.04297,-0.041016 l -0.01563,-0.017578 a 0.25002501,0.25002501 0 0 0 -0.01953,-0.019531 0.25002501,0.25002501 0 0 0 -0.0039,-0.00195 L 25.164062,2.7851562 a 0.25002501,0.25002501 0 0 0 -0.03711,-0.037109 0.25002501,0.25002501 0 0 0 -0.140624,-0.041016 z m 0.0059,0.6054688 1.851562,1.8496094 a 0.25002501,0.25002501 0 0 0 0.01563,0.017578 l 0.0059,0.00586 a 0.25002501,0.25002501 0 0 0 0.05273,0.052734 L 28.734456,7.0546877 28.087972,7.7011721 26.226643,5.839844 a 0.25098527,0.25098527 0 0 0 -0.0078,-0.00586 l -1.875,-1.875 z m -0.0293,2.59375 A 0.25002501,0.25002501 0 0 0 24.792969,5.984375 L 10.601562,20.177734 a 0.25002501,0.25002501 0 0 0 -0.0059,0.0039 c -0.211642,0.219923 -0.414797,0.453161 -0.6054686,0.689453 -0.1906847,0.236277 -0.3737865,0.475492 -0.5332032,0.710937 -0.1594166,0.235446 -0.2943638,0.465222 -0.4121093,0.683594 -0.1177436,0.218374 -0.2156677,0.426071 -0.28125,0.615234 a 0.25002501,0.25002501 0 0 0 0.3183593,0.31836 C 9.271189,23.133636 9.4788894,23.035716 9.6972656,22.917969 9.9156316,22.800233 10.141507,22.659418 10.376953,22.5 c 0.23545,-0.15942 0.478566,-0.336678 0.714844,-0.527344 0.236273,-0.190681 0.469531,-0.393831 0.689453,-0.605468 a 0.25002501,0.25002501 0 0 0 0.0039,-0.0059 L 25.978516,7.1699219 A 0.25135447,0.25135447 0 1 0 25.623047,6.8144531 L 14.546875,17.890625 14.066406,17.410156 25.142578,6.3339844 A 0.25002501,0.25002501 0 0 0 25.107422,5.9433594 0.25002501,0.25002501 0 0 0 24.962891,5.90625 Z M 8.3085938,17.619141 a 0.25002501,0.25002501 0 0 0 -0.1777344,0.07813 c 0,0 -2.1860184,2.214775 -3.0585938,3.058593 a 0.25002501,0.25002501 0 0 0 -0.015625,0.01563 C 4.2565271,21.654887 3.744897,22.332009 3.4082031,23.015625 a 0.25002501,0.25002501 0 0 0 0,0.01172 c -0.5266548,1.228875 -0.7694171,2.30448 -0.7421875,3.214844 0.025769,0.861594 0.3042371,1.570422 0.7851563,2.09375 a 0.25002501,0.25002501 0 0 0 0.076172,0.09375 0.25002501,0.25002501 0 0 0 0.095703,0.07812 c 0.5231437,0.479763 1.2313107,0.757467 2.0917969,0.783204 0.9103645,0.02721 1.9918422,-0.209676 3.2207031,-0.736328 a 0.25002501,0.25002501 0 0 0 0.00586,-0.0059 C 9.6250257,28.21213 10.308008,27.706351 11.191406,26.90625 a 0.25002501,0.25002501 0 0 0 0.01563,-0.01563 c 0.843833,-0.872589 3.058594,-3.060547 3.058594,-3.060547 a 0.25002501,0.25002501 0 0 0 0,-0.353516 l -2.005859,-2.005859 a 0.25002501,0.25002501 0 0 0 -0.03516,-0.03516 0.25002501,0.25002501 0 0 0 -0.314453,0.384765 l 1.828125,1.828126 c -0.229584,0.226686 -2.088415,2.060887 -2.896484,2.896484 -0.8537047,0.771465 -1.5000242,1.246908 -2.1152345,1.550781 -0.00171,8.46e-4 -0.00414,0.005 -0.00586,0.0059 -1.1729461,0.500363 -2.1770524,0.711647 -2.984375,0.6875 -0.7951453,-0.02378 -1.4028429,-0.270303 -1.8320312,-0.6875 a 0.25002501,0.25002501 0 0 0 -0.019531,-0.01562 c -0.00229,-0.0023 -0.00553,-0.0036 -0.00781,-0.0059 -0.4332294,-0.430553 -0.6788477,-1.041865 -0.703125,-1.853516 -0.024277,-0.811651 0.1871894,-1.82089 0.6933594,-3.001953 0.3039609,-0.613624 0.7756028,-1.256095 1.5449219,-2.107421 l 0.015625,-0.01563 C 6.2711348,20.284994 8.083134,18.447092 8.3085938,18.21875 l 1.8320312,1.832031 a 0.25002501,0.25002501 0 1 0 0.349609,-0.349609 L 8.4863281,17.697266 a 0.25002501,0.25002501 0 0 0 -0.037109,-0.03711 0.25002501,0.25002501 0 0 0 -0.140625,-0.04102 z m 5.4082032,0.140625 0.480469,0.480468 -2.767578,2.767578 c -0.20857,0.200713 -0.42679,0.396091 -0.652344,0.578126 -0.22558,0.182017 -0.454449,0.350767 -0.677735,0.501953 C 9.8986538,22.223957 9.7031645,22.335689 9.5195312,22.4375 9.6211828,22.254278 9.7392851,22.063723 9.875,21.863281 c 0.151187,-0.223293 0.319926,-0.454138 0.501953,-0.679687 0.182026,-0.22555 0.373502,-0.447688 0.574219,-0.65625 z" style="color:#000000;font-style:normal;font-variant:normal;font-weight:normal;font-stretch:normal;font-size:medium;line-height:normal;font-family:sans-serif;font-variant-ligatures:normal;font-variant-position:normal;font-variant-caps:normal;font-variant-numeric:normal;font-variant-alternates:normal;font-feature-settings:normal;text-indent:0;text-align:start;text-decoration:none;text-decoration-line:none;text-decoration-style:solid;text-decoration-color:#000000;letter-spacing:normal;word-spacing:normal;text-transform:none;writing-mode:lr-tb;direction:ltr;text-orientation:mixed;dominant-baseline:auto;baseline-shift:baseline;text-anchor:start;white-space:normal;shape-padding:0;clip-rule:nonzero;display:inline;overflow:visible;visibility:visible;opacity:1;isolation:auto;mix-blend-mode:normal;color-interpolation:sRGB;color-interpolation-filters:linearRGB;solid-color:#000000;solid-opacity:1;vector-effect:none;fill:#000000;fill-opacity:1;fill-rule:nonzero;stroke:none;stroke-width:0.50000006;stroke-linecap:round;stroke-linejoin:round;stroke-miterlimit:4;stroke-dasharray:none;stroke-dashoffset:0;stroke-opacity:1;paint-order:fill markers stroke;color-rendering:auto;image-rendering:auto;shape-rendering:auto;text-rendering:auto;enable-background:accumulate"></path></g></svg>
