<svg height='100px' width='100px'  fill="#000000" xmlns="http://www.w3.org/2000/svg" version="1.1" x="0px" y="0px" viewBox="0 0 66 66" enable-background="new 0 0 66 66" xml:space="preserve"><g transform="rotate(45) translate(29 -32)"><path d="M19.707,1.611C19.55,1.241,19.187,1,18.785,1c0,0-0.001,0-0.002,0c-0.403,0.001-0.766,0.243-0.921,0.614L5.552,31.088   c-0.165,0.396-0.06,0.853,0.262,1.136l7.911,6.968v5.541c0,1.029,0.528,1.945,1.385,2.626v13.908c0,2.058,1.674,3.732,3.732,3.732   s3.732-1.675,3.732-3.732V47.364c0.86-0.681,1.39-1.599,1.39-2.63v-5.666l7.909-6.837c0.328-0.284,0.436-0.746,0.268-1.146   L19.707,1.611z M21.965,44.733c0,0.862-1.281,1.822-3.12,1.822s-3.12-0.96-3.12-1.822v-9.012l3.12-4.342l3.12,4.342V44.733z    M7.674,31.197L17.785,6.99v22.437l-3.872,5.388c-0.122,0.171-0.188,0.375-0.188,0.584v1.128L7.674,31.197z M20.575,61.268   c0,0.955-0.777,1.732-1.732,1.732s-1.732-0.777-1.732-1.732V48.323c0.542,0.142,1.12,0.233,1.735,0.233   c0.613,0,1.189-0.091,1.73-0.232V61.268z M23.965,36.423v-1.024c0-0.209-0.066-0.413-0.188-0.584l-3.992-5.555V6.943l10.231,24.25   L23.965,36.423z"></path></g></svg>
