<svg height='100px' width='100px' xmlns="http://www.w3.org/2000/svg" version="1.1" x="0px" y="0px" viewBox="0 0 1600 1600"><style type="text/css">.st0{fill:none;stroke:#000000;stroke-width:40;stroke-miterlimit:10;}</style><g><g><path class="st0" d="M121.311,322.447L639.84,619.101c14.106,8.07,22.809,23.076,22.809,39.328v143.612v214.333    c0,16.298-8.754,31.341-22.924,39.393l-518.529,294.649c-30.205,17.164-67.694-4.652-67.694-39.393V361.774    C53.503,326.975,91.106,305.166,121.311,322.447z"></path><path class="st0" d="M730.613,322.646l821.23,474.137c30.206,17.439,30.206,61.038,0,78.477l-821.23,474.137    c-30.206,17.439-67.963-4.36-67.963-39.239V361.885C662.649,327.006,700.407,305.207,730.613,322.646z"></path></g></g></svg>
