<svg xmlns="http://www.w3.org/2000/svg" version="1.1" x="0px" y="0px" viewBox="0 0 100 100" style="enable-background:new 0 0 100 100;" xml:space="preserve"><g><path d="M37.3,32.5c0,0.5,0.4,0.9,0.9,1c5.6,0.6,8.7-5.5,10-8.8c5.8,8.1,15.3,8.8,16.1,8.8c0.1,0,0.5,0.1,1.1,0.1   c2.9,0,10.6-1,13.9-10.8c0.1-0.2,0.1-0.4,0-0.6c0-0.1-3-10.8-14.9-10.8c0,0,0,0-0.1,0c-0.4,0-10.2,0.5-16.2,8.8   c-1.3-3.3-4.4-9.4-10-8.8c-0.5,0.1-0.9,0.5-0.9,1c0,0.3-0.1,6.8,2.9,10.1C37.3,25.7,37.3,32.2,37.3,32.5z M64.4,13.3   C64.4,13.3,64.4,13.3,64.4,13.3c9.5,0,12.4,7.5,12.9,9.1c-3.6,10.3-12.4,9.2-12.8,9.1c0,0-0.1,0-0.1,0c-0.1,0-10.1-0.5-15.4-9.1   C54.3,13.8,64.3,13.3,64.4,13.3z M42.3,23.2c0.3-0.2,0.4-0.5,0.4-0.8s-0.1-0.6-0.4-0.8c-2.2-1.6-2.9-5.9-3-8.3   c4.6,0.4,7.1,7.6,7.5,9.1c-0.4,1.5-2.9,8.7-7.5,9.1C39.5,29.1,40.1,24.8,42.3,23.2z"></path><ellipse cx="71.9" cy="20.2" rx="1" ry="1.1"></ellipse><path d="M19,64.6c5.8,8.1,15.3,8.8,16.1,8.8c0.1,0,0.5,0.1,1.1,0.1c2.9,0,10.6-1,13.9-10.8c0.1-0.2,0.1-0.4,0-0.6   c0-0.1-3-10.8-14.9-10.8c0,0,0,0-0.1,0c-0.4,0-10.2,0.5-16.2,8.8c-1.3-3.3-4.4-9.4-10-8.8c-0.5,0.1-0.9,0.5-0.9,1   C8.1,52.5,8,59,11,62.3c-3,3.3-2.9,9.8-2.9,10.1c0,0.5,0.4,0.9,0.9,1C14.6,74,17.7,67.9,19,64.6z M35.2,53.2   C35.2,53.2,35.2,53.2,35.2,53.2c9.5,0,12.4,7.5,12.9,9.1c-3.6,10.3-12.4,9.2-12.8,9.1c0,0-0.1,0-0.1,0c-0.1,0-10.1-0.5-15.4-9.1   C25.1,53.7,35.1,53.2,35.2,53.2z M13.1,63.1c0.3-0.2,0.4-0.5,0.4-0.8s-0.1-0.6-0.4-0.8c-2.2-1.6-2.9-5.9-3-8.3   c4.6,0.4,7.1,7.6,7.5,9.1c-0.4,1.5-2.9,8.7-7.5,9.1C10.2,69,10.9,64.7,13.1,63.1z"></path><ellipse cx="42.6" cy="60.1" rx="1" ry="1.1"></ellipse><path d="M25.5,47.1c0,0.5,0.4,0.9,0.9,1c2.7,0.3,4.3-2.1,5.2-3.9c3,3.5,7.3,3.9,7.9,3.9c0.2,0,0.5,0,0.7,0c2.2,0,5.8-1.2,7.3-5.8   c0.1-0.2,0.1-0.4,0-0.6c-0.5-2-2.9-5.8-7.9-5.8c0,0,0,0,0,0c-0.2,0-4.8,0.2-7.9,3.9c-0.8-1.8-2.5-4.2-5.2-3.9   c-0.5,0.1-0.9,0.5-0.9,1c0,0.4,0,3.3,1.3,5.1C25.5,43.9,25.5,46.7,25.5,47.1z M39.6,38C39.6,38,39.6,38,39.6,38   c4.1,0,5.6,3.1,5.9,4c-1.7,4.6-5.6,4.1-5.8,4.1c0,0-0.1,0-0.1,0c0,0-4.6-0.2-7.1-4C35,38.2,39.4,38,39.6,38z M28.8,41.3   c-0.8-0.6-1.1-2-1.2-3.1c1.5,0.7,2.4,3.1,2.7,3.9c-0.3,0.8-1.2,3.2-2.7,3.9c0.1-1.1,0.5-2.5,1.2-3.1c0.3-0.2,0.4-0.5,0.4-0.8   S29.1,41.4,28.8,41.3z"></path><ellipse cx="43.3" cy="40.9" rx="0.5" ry="0.6"></ellipse><path d="M39.1,86.5c0,0.5,0.4,0.9,0.9,1c2.7,0.3,4.3-2.1,5.2-3.9c3,3.5,7.3,3.9,7.9,3.9c0.2,0,0.5,0,0.7,0c2.2,0,5.8-1.2,7.3-5.8   c0.1-0.2,0.1-0.4,0-0.6c-0.5-2-2.9-5.8-7.9-5.8c0,0,0,0,0,0c-0.2,0-4.8,0.2-7.9,3.9c-0.8-1.8-2.5-4.2-5.2-3.9   c-0.5,0.1-0.9,0.5-0.9,1c0,0.4,0,3.3,1.3,5.1C39.1,83.2,39.1,86.1,39.1,86.5z M53.2,77.3C53.2,77.3,53.2,77.3,53.2,77.3   c4.1,0,5.6,3.1,5.9,4c-1.7,4.6-5.6,4.1-5.8,4.1c0,0-0.1,0-0.1,0c-0.2,0-4.6-0.2-7.1-4C48.6,77.6,53,77.4,53.2,77.3z M42.5,80.6   c-0.8-0.6-1.1-2-1.2-3.1c1.5,0.7,2.4,3.1,2.7,3.9c-0.3,0.8-1.2,3.2-2.7,3.9c0.1-1.1,0.5-2.5,1.2-3.1c0.3-0.2,0.4-0.5,0.4-0.8   S42.7,80.8,42.5,80.6z"></path><ellipse cx="56.9" cy="80.3" rx="0.5" ry="0.6"></ellipse><path d="M69.3,41.4c-1-2.3-3-5.6-6.5-5.3c-0.5,0.1-0.9,0.5-0.9,1c0,0.5,0,4.3,1.8,6.5c-1.8,2.2-1.8,6-1.8,6.5c0,0.5,0.4,0.9,0.9,1   c3.5,0.4,5.6-3,6.5-5.3C73.1,50.6,79,51,79.5,51c0.1,0,0.4,0,0.7,0c2,0,7.1-0.7,9.3-7.2c0.1-0.2,0.1-0.4,0-0.6c0-0.1-2-7.2-9.9-7.2   c0,0,0,0,0,0C79.3,36.1,73.2,36.4,69.3,41.4z M63.9,49c0.1-1.5,0.6-3.7,1.7-4.6c0.3-0.2,0.4-0.5,0.4-0.8s-0.1-0.6-0.4-0.8   c-1.2-0.9-1.6-3.1-1.7-4.6c2.4,0.6,3.7,4.4,4.1,5.4C67.7,44.6,66.3,48.3,63.9,49z M79.6,38.1C79.6,38.1,79.6,38.1,79.6,38.1   c5.6,0,7.5,4.3,7.9,5.5c-2.2,6.2-7.5,5.5-7.8,5.5c0,0-0.1,0-0.1,0c-0.1,0-6.1-0.3-9.4-5.5C73.5,38.4,79.6,38.1,79.6,38.1z"></path><ellipse cx="84.4" cy="42.1" rx="0.7" ry="0.7"></ellipse><path d="M52.4,66c0,0.5,0.4,0.9,0.9,1c3.5,0.4,5.6-3,6.5-5.3c3.8,4.9,9.6,5.3,10.2,5.3c0.1,0,0.4,0,0.7,0c2,0,7.1-0.7,9.3-7.2   c0.1-0.2,0.1-0.4,0-0.6c0-0.1-2-7.2-9.9-7.2c0,0,0,0,0,0c-0.3,0-6.3,0.3-10.3,5.3c-1-2.3-3-5.7-6.5-5.3c-0.5,0.1-0.9,0.5-0.9,1   c0,0.5,0,4.3,1.8,6.5C52.4,61.7,52.4,65.5,52.4,66z M70.1,54C70.2,54,70.2,54,70.1,54c5.6,0,7.5,4.3,7.9,5.5   c-2.2,6.2-7.5,5.5-7.8,5.5c0,0-0.1,0-0.1,0c-0.1,0-6.1-0.3-9.4-5.5C64,54.3,70.1,54,70.1,54z M58.5,59.5c-0.3,1-1.7,4.8-4.1,5.4   c0.1-1.5,0.6-3.7,1.7-4.6c0.3-0.2,0.4-0.5,0.4-0.8s-0.1-0.6-0.4-0.8c-1.2-0.9-1.6-3.1-1.7-4.6C56.8,54.7,58.2,58.5,58.5,59.5z"></path><ellipse cx="74.9" cy="58.1" rx="0.7" ry="0.7"></ellipse></g></svg>
