<svg xmlns="http://www.w3.org/2000/svg" version="1.1" x="0px" y="0px" viewBox="0 0 402.668 402.75" enable-background="new 0 0 402.668 402.75" xml:space="preserve"><path d="M202.256,301.449c-0.074-0.146-0.191-0.383-0.311-0.606C202.099,301.139,202.197,301.333,202.256,301.449z"></path><path d="M202.066,301.077C202.167,301.277,202.148,301.236,202.066,301.077L202.066,301.077z"></path><path d="M382.507,343.378c1.412,0.008,2.824,0.012,4.265,0.012c4.553,0,7.45-5.069,5.209-8.995l-10.363-17.999  c1.107-0.004,2.213-0.012,3.332-0.012c4.361,0,7.35-4.747,5.389-8.669l-32.267-85.486c-1.008-2.014-3.119-3.332-5.373-3.332  c-41.312,0-80.22,7.69-109.562,21.659c-19.975,9.509-34.113,31.284-41.578,44.312c-7.464-13.027-21.603-34.802-41.574-44.312  c-29.341-13.969-68.246-21.66-109.554-21.66c-2.229,0-4.383,1.307-5.367,3.315l-32.491,85.485c-1.983,3.921,1.019,8.688,5.382,8.688  c1.725,0,3.435,0.006,5.135,0.018l-10.358,17.991c-2.178,3.938,0.605,8.995,5.209,8.995c1.438,0,2.851-0.004,4.262-0.011  l-10.623,20.965c-2.14,4.277,1.517,9.318,6.286,8.642l148.797-13.44c3.163,14.516,16.438,13.848,35.02,13.848  c18.583,0,31.856,0.668,35.021-13.848l148.807,13.44c6.472,1.019,8.25-7.408,7.625-8.642L382.507,343.378z M34.686,304.559  c-0.75-0.158-1.514-0.171-2.253-0.043c-1.599-0.029-3.205-0.056-4.82-0.074l26.502-73.503c38.169,0.438,73.812,7.647,100.71,20.451  c24.903,11.855,39.223,36.95,40.716,52.764l0.038,44.698C169.117,329.332,108.832,306.144,34.686,304.559z M372.067,304.489  c-0.601-0.083-1.213-0.071-1.82,0.03c-79.842,1.492-138.123,22.199-162.568,44.092l-0.104-44.457  c1.494-15.813,15.813-40.908,40.721-52.764c26.895-12.802,62.537-20.013,100.703-20.452l26.316,73.503  C374.227,304.454,373.147,304.472,372.067,304.489z"></path><path d="M202.049,301.048c0.037,0.071,0.064,0.129,0.103,0.193C202.09,301.125,202.049,301.048,202.049,301.048z"></path><line fill="none" x1="50.016" y1="218.896" x2="354.184" y2="218.896"></line><path d="M290.7,15.441c-4.372,7.834-14.198,13.18-25.506,12.937c-3.624-0.075-7.061-0.722-10.198-1.825l2.703-4.452l-11.416-6.933  l-2.53,4.165c-1.406-1.528-2.598-3.188-3.494-4.974L221.983,44.45c1.992-0.03,4.018,0.26,6.019,0.806l-25.906,42.638l-25.902-42.638  c2.003-0.545,4.025-0.836,6.023-0.806l-18.279-30.091c-0.895,1.786-2.086,3.452-3.491,4.974l-2.533-4.165l-11.414,6.933l2.703,4.452  c-3.138,1.103-6.576,1.75-10.2,1.825c-11.309,0.245-21.135-5.103-25.503-12.937c-10.56,8.266-9.464,30.352,2.896,50.699  c12.544,20.646,32.017,31.816,44.186,25.682c-7.301-7.205-8.537-20.283-2.293-31.702c1.736-3.182,3.896-5.935,6.321-8.215  l29.676,48.85l-57.319,94.345l11.413,6.938l53.717-88.423l53.719,88.423l11.415-6.938l-57.32-94.345l29.679-48.85  c2.427,2.28,4.584,5.033,6.322,8.215c6.242,11.419,5.009,24.497-2.293,31.702c12.173,6.135,31.642-5.036,44.188-25.682  C300.164,45.792,301.263,23.707,290.7,15.441z"></path></svg>
