<svg height='100px' width='100px' xmlns="http://www.w3.org/2000/svg" version="1.1" x="0px" y="0px" viewBox="0 0 100 100" style="enable-background:new 0 0 100 100;"><path d="M65.5,35c-3.1,0-6-1.4-8-3.8c-2,2.4-4.9,3.8-8,3.8s-6-1.4-8-3.8c-2,2.4-4.9,3.8-8,3.8s-6-1.4-8-3.8  c-2,2.4-4.9,3.8-8,3.8c0,0,0,0,0,0c-0.6,0-1-0.4-1-1s0.4-1,1-1l0,0c0,0,0,0,0,0c2.9,0,5.6-1.5,7.1-4c0.2-0.3,0.5-0.5,0.9-0.5l0,0  c0.3,0,0.7,0.2,0.9,0.5c1.5,2.5,4.2,4,7.1,4s5.6-1.5,7.1-4c0.4-0.6,1.3-0.6,1.7,0c1.5,2.5,4.2,4,7.1,4s5.6-1.5,7.1-4  c0.4-0.6,1.3-0.6,1.7,0c1.5,2.5,4.2,4,7.1,4s5.6-1.5,7.1-4c0.2-0.3,0.5-0.5,0.9-0.5l0,0c0.3,0,0.7,0.2,0.9,0.5c1.5,2.5,4.2,4,7.1,4  c0.6,0,1,0.4,1,1s-0.4,1-1,1c-3.1,0-6-1.4-8-3.8C71.6,33.7,68.7,35,65.5,35z"></path><path d="M65.5,47.3c-3.1,0-6-1.4-8-3.8c-2,2.4-4.9,3.8-8,3.8s-6-1.4-8-3.8c-2,2.4-4.9,3.8-8,3.8s-6-1.4-8-3.8  c-2,2.4-4.9,3.8-8,3.8c0,0,0,0,0,0c-0.6,0-1-0.4-1-1s0.4-1,1-1l0,0c0,0,0,0,0,0c2.9,0,5.6-1.5,7.1-4c0.2-0.3,0.5-0.5,0.9-0.5l0,0  c0.3,0,0.7,0.2,0.9,0.5c1.5,2.5,4.2,4,7.1,4s5.6-1.5,7.1-4c0.4-0.6,1.3-0.6,1.7,0c1.5,2.5,4.2,4,7.1,4s5.6-1.5,7.1-4  c0.4-0.6,1.3-0.6,1.7,0c1.5,2.5,4.2,4,7.1,4s5.6-1.5,7.1-4c0.2-0.3,0.5-0.5,0.9-0.5l0,0c0.3,0,0.7,0.2,0.9,0.5c1.5,2.5,4.2,4,7.1,4  c0.6,0,1,0.4,1,1s-0.4,1-1,1c-3.1,0-6-1.4-8-3.8C71.6,45.9,68.7,47.3,65.5,47.3z"></path><path d="M65.5,59.5c-3.1,0-6-1.4-8-3.8c-2,2.4-4.9,3.8-8,3.8s-6-1.4-8-3.8c-2,2.4-4.9,3.8-8,3.8s-6-1.4-8-3.8  c-2,2.4-4.9,3.8-8,3.8c0,0,0,0,0,0c-0.6,0-1-0.4-1-1s0.4-1,1-1l0,0c0,0,0,0,0,0c2.9,0,5.6-1.5,7.1-4c0.2-0.3,0.5-0.5,0.9-0.5l0,0  c0.3,0,0.7,0.2,0.9,0.5c1.5,2.5,4.2,4,7.1,4s5.6-1.5,7.1-4c0.4-0.6,1.3-0.6,1.7,0c1.5,2.5,4.2,4,7.1,4s5.6-1.5,7.1-4  c0.4-0.6,1.3-0.6,1.7,0c1.5,2.5,4.2,4,7.1,4s5.6-1.5,7.1-4c0.2-0.3,0.5-0.5,0.9-0.5l0,0c0.3,0,0.7,0.2,0.9,0.5c1.5,2.5,4.2,4,7.1,4  c0.6,0,1,0.4,1,1s-0.4,1-1,1c-3.1,0-6-1.4-8-3.8C71.6,58.1,68.7,59.5,65.5,59.5z"></path><path d="M65.5,71.7c-3.1,0-6-1.4-8-3.8c-2,2.4-4.9,3.8-8,3.8s-6-1.4-8-3.8c-2,2.4-4.9,3.8-8,3.8s-6-1.4-8-3.8  c-2,2.4-4.9,3.8-8,3.8c0,0,0,0,0,0c-0.6,0-1-0.4-1-1s0.4-1,1-1l0,0c0,0,0,0,0,0c2.9,0,5.6-1.5,7.1-4c0.2-0.3,0.5-0.5,0.9-0.5l0,0  c0.3,0,0.7,0.2,0.9,0.5c1.5,2.5,4.2,4,7.1,4s5.6-1.5,7.1-4c0.4-0.6,1.3-0.6,1.7,0c1.5,2.5,4.2,4,7.1,4s5.6-1.5,7.1-4  c0.4-0.6,1.3-0.6,1.7,0c1.5,2.5,4.2,4,7.1,4s5.6-1.5,7.1-4c0.2-0.3,0.5-0.5,0.9-0.5l0,0c0.3,0,0.7,0.2,0.9,0.5c1.5,2.5,4.2,4,7.1,4  c0.6,0,1,0.4,1,1s-0.4,1-1,1c-3.1,0-6-1.4-8-3.8C71.6,70.3,68.7,71.7,65.5,71.7z"></path></svg>
